# xmcd CD database file
#
# Track frame offsets:
#	187
#	26497
#	40057
#	64340
#	92567
#	110810
#	135097
#	163147
#	185670
#	202015
#	232535
#	259440
#
# Disc length: 3960 seconds
#
# Revision: 3
# Processed by: cddbd v1.5PL3 Copyright (c) Steve Scherf et al.
# Submitted via: CDex 1.50Beta7
#
DISCID=a20f760c
DTITLE=近藤房之助 - GO BACK TO De BASIC THING
DYEAR=1900
DGENRE=Blues
TTITLE0=I Can't Quit You Babe
TTITLE1=Too Many Cooks
TTITLE2=Same Old Blues
TTITLE3=You've Lost That Lovin' Feelin'
TTITLE4=Spinning Wheel
TTITLE5=Mama Mama
TTITLE6=Go Back To The Basic Thing
TTITLE7=Pick Yourself Up
TTITLE8=You Really Got A Hold On Me
TTITLE9=Part Time Love
TTITLE10=Rock Me Baby
TTITLE11=Everytime You Go Away
EXTD=
EXTT0=
EXTT1=
EXTT2=
EXTT3=
EXTT4=
EXTT5=
EXTT6=
EXTT7=
EXTT8=
EXTT9=
EXTT10=
EXTT11=
PLAYORDER=
